<?xml version="1.0" standalone="no"?>
<!DOCTYPE svg PUBLIC "-//W3C//DTD SVG 20010904//EN"
 "http://www.w3.org/TR/2001/REC-SVG-20010904/DTD/svg10.dtd">
<svg version="1.0" xmlns="http://www.w3.org/2000/svg"
 width="2329.000000pt" height="951.000000pt" viewBox="0 0 2329.000000 951.000000"
 preserveAspectRatio="xMidYMid meet">

<g transform="translate(0.000000,951.000000) scale(0.100000,-0.100000)"
fill="#000000" stroke="none">
<path d="M11415 9485 c-564 -92 -1017 -497 -1169 -1045 -47 -167 -62 -398 -31
-464 40 -83 135 -125 227 -101 97 25 148 108 148 241 0 174 82 405 199 563
213 287 547 446 900 428 383 -19 716 -238 886 -582 93 -188 128 -375 106 -569
-16 -143 -42 -232 -106 -361 -170 -344 -489 -554 -887 -584 -135 -10 -176 -28
-219 -98 -24 -38 -24 -39 -27 -398 l-3 -361 -5347 -1728 c-2941 -951 -5382
-1743 -5424 -1761 -276 -118 -505 -368 -604 -659 -75 -220 -75 -485 2 -714
113 -340 405 -612 763 -710 l96 -27 576 0 575 0 37 25 c54 36 91 115 85 180
-6 64 -45 123 -101 152 -42 23 -45 23 -587 28 -490 5 -551 8 -600 24 -188 62
-350 197 -432 363 -64 126 -82 214 -75 361 3 91 10 133 30 190 65 184 190 328
357 412 30 15 2501 818 5490 1785 3188 1030 5450 1766 5471 1780 21 13 46 43
58 67 20 42 21 58 21 376 0 183 2 332 5 332 27 0 217 48 284 72 294 104 558
313 730 578 93 143 171 340 207 525 24 124 24 386 0 510 -114 583 -529 1015
-1106 1152 -135 32 -396 40 -535 18z"/>
<path d="M12748 5800 c-69 -37 -116 -127 -103 -198 9 -48 48 -115 79 -135 14
-9 2196 -719 4849 -1577 2654 -857 4845 -1567 4869 -1577 209 -83 372 -274
429 -503 19 -77 17 -250 -4 -330 -69 -259 -265 -455 -521 -520 -73 -19 -112
-20 -520 -20 -292 0 -454 -4 -481 -11 -53 -15 -120 -82 -134 -136 -22 -80 6
-157 75 -209 l37 -29 471 -3 c512 -3 571 1 716 48 346 113 614 383 719 725 27
87 51 239 51 327 0 207 -73 445 -191 620 -101 150 -284 306 -450 382 -41 19
-2254 739 -4918 1600 -3659 1183 -4855 1566 -4890 1566 -26 -1 -62 -10 -83
-20z"/>
<path d="M4500 3119 c-384 -43 -708 -190 -948 -430 -234 -234 -369 -523 -413
-882 -17 -144 -6 -476 19 -595 135 -618 593 -1034 1242 -1126 391 -55 794 -6
1095 134 457 212 741 613 811 1144 22 166 14 479 -15 620 -60 292 -179 514
-381 716 -240 241 -528 374 -910 420 -98 12 -391 11 -500 -1z m478 -315 c180
-26 322 -79 459 -170 315 -209 473 -557 473 -1039 0 -399 -95 -668 -314 -893
-172 -177 -390 -280 -673 -317 -423 -55 -789 52 -1043 306 -161 160 -262 348
-315 589 -22 99 -31 407 -16 523 72 540 449 929 976 1006 101 15 339 12 453
-5z"/>
<path d="M19095 3124 c-211 -29 -341 -60 -465 -111 -234 -96 -418 -270 -480
-453 -31 -91 -42 -205 -31 -299 20 -156 72 -260 191 -382 128 -130 295 -228
721 -419 372 -168 500 -241 596 -342 204 -217 140 -539 -132 -663 -252 -116
-647 -112 -1035 10 -87 28 -260 107 -317 145 l-33 22 0 -202 0 -201 53 -24
c219 -97 655 -158 960 -135 509 38 826 195 966 477 46 92 64 180 64 313 0 99
-4 126 -27 194 -93 271 -323 452 -896 706 -541 239 -662 333 -700 540 -36 197
80 371 305 455 135 51 201 60 445 59 195 0 239 -3 330 -23 149 -32 263 -72
393 -139 4 -2 7 82 7 187 l0 191 -32 13 c-135 55 -304 78 -603 82 -137 2 -263
1 -280 -1z"/>
<path d="M6953 2083 c3 -883 6 -1010 21 -1101 75 -452 294 -723 682 -845 259
-82 633 -96 929 -36 437 89 707 325 821 719 59 203 58 178 61 1263 l4 997
-196 0 -195 0 0 -950 c0 -1005 -3 -1078 -46 -1228 -89 -308 -301 -480 -644
-522 -107 -13 -222 -13 -330 0 -399 49 -626 266 -695 664 -13 75 -15 235 -15
1062 l0 974 -201 0 -201 0 5 -997z"/>
<path d="M9980 2925 l0 -155 490 0 490 0 0 -1330 0 -1330 195 0 195 0 0 1330
0 1330 490 0 490 0 0 155 0 155 -1175 0 -1175 0 0 -155z"/>
<path d="M12860 1595 l0 -1485 875 0 875 0 0 155 0 155 -680 0 -680 0 0 1330
0 1330 -195 0 -195 0 0 -1485z"/>
<path d="M16032 3056 c-47 -104 -1282 -2936 -1282 -2940 0 -4 98 -5 217 -4
l216 3 144 355 c78 195 155 383 169 418 l26 62 720 -2 719 -3 179 -415 179
-415 215 -3 c119 -1 216 1 216 5 -1 5 -292 672 -648 1483 l-647 1475 -206 3
-206 2 -11 -24z m234 -413 c14 -58 114 -309 292 -733 149 -354 268 -648 266
-652 -7 -10 -1161 -11 -1167 0 -2 4 119 302 269 662 180 430 279 682 290 733
10 42 20 77 23 77 4 0 16 -39 27 -87z"/>
</g>
</svg>
